<?xml version="1.0" standalone="no"?><!DOCTYPE svg PUBLIC "-//W3C//DTD SVG 1.1//EN" "http://www.w3.org/Graphics/SVG/1.1/DTD/svg11.dtd"><svg t="1588000705216" class="icon" viewBox="0 0 1024 1024" version="1.1" xmlns="http://www.w3.org/2000/svg" p-id="1182" xmlns:xlink="http://www.w3.org/1999/xlink" width="200" height="200"><defs><style type="text/css">@font-face { font-family: Georgia; src: local("Source Han Serif SC"); }
@font-face { font-family: Times; src: local("Source Han Serif SC"); }
@font-face { font-family: "Time New Roman"; src: local("Source Han Serif SC"); }
@font-face { font-family: Arial; src: local("Source Han Sans SC"); }
@font-face { font-family: Helvetica; src: local("Source Han Sans SC"); }
@font-face { font-family: "Helvetica Neue"; src: local("Source Han Sans SC"); }
@font-face { font-family: "Segoe UI"; src: local("Source Han Sans SC"); }
@font-face { font-family: Tahoma; src: local("Source Han Sans SC"); }
@font-face { font-family: Trebuchet; src: local("Source Han Sans SC"); }
@font-face { font-family: "Trebuchet MS"; src: local("Source Han Sans SC"); }
@font-face { font-family: Verdana; src: local("Source Han Sans SC"); }
@font-face { font-family: Consolas; src: local("Source Code Pro"); }
@font-face { font-family: Courier; src: local("Source Code Pro"); }
@font-face { font-family: "Courier New"; src: local("Source Code Pro"); }
@font-face { font-family: SimSun; src: local("Source Han Sans SC"); }
@font-face { font-family: SimSun-ExtB; src: local("Source Han Sans SC"); }
@font-face { font-family: 宋体; src: local("Source Han Sans SC"); }
@font-face { font-family: NSimSun; src: local("Source Han Sans SC"); }
@font-face { font-family: 新宋体; src: local("Source Han Sans SC"); }
@font-face { font-family: SimHei; src: local("Source Han Sans SC"); }
@font-face { font-family: 黑体; src: local("Source Han Sans SC"); }
@font-face { font-family: "Microsoft YaHei"; src: local("Source Han Sans SC"); }
@font-face { font-family: 微软雅黑; src: local("Source Han Sans SC"); }
@font-face { font-family: "STHeiti SC"; src: local("Source Han Sans SC"); }
@font-face { font-family: "PingFang SC"; src: local("Source Han Sans SC"); }
@font-face { font-family: 苹方-简; src: local("Source Han Sans SC"); }
@font-face { font-family: MingLiU; src: local("Source Han Sans TC"); }
@font-face { font-family: MingLiU-ExtB; src: local("Source Han Sans TC"); }
@font-face { font-family: PMingLiU; src: local("Source Han Sans TC"); }
@font-face { font-family: PMingLiU-ExtB; src: local("Source Han Sans TC"); }
@font-face { font-family: "Microsoft JhengHei"; src: local("Source Han Sans TC"); }
@font-face { font-family: 微軟正黑體; src: local("Source Han Sans TC"); }
@font-face { font-family: "STHeiti TC"; src: local("Source Han Sans TC"); }
@font-face { font-family: "PingFang TC"; src: local("Source Han Sans TC"); }
@font-face { font-family: 蘋方-繁; src: local("Source Han Sans TC"); }
@font-face { font-family: MingLiU_HKSCS; src: local("Source Han Sans HC"); }
@font-face { font-family: MingLiU_HKSCS-ExtB; src: local("Source Han Sans HC"); }
@font-face { font-family: "PingFang HK"; src: local("Source Han Sans HC"); }
@font-face { font-family: 蘋方-港; src: local("Source Han Sans HC"); }
@font-face { font-family: "MS Gothic"; src: local("Source Han Sans"); }
@font-face { font-family: "MS PGothic"; src: local("Source Han Sans"); }
@font-face { font-family: "MS UI Gothic"; src: local("Source Han Sans"); }
@font-face { font-family: "Yu Gothic"; src: local("Source Han Sans"); }
@font-face { font-family: "Yu Gothic UI"; src: local("Source Han Sans"); }
@font-face { font-family: "Malgun Gothic"; src: local("Source Han Sans K"); }
</style></defs><path d="M904.8 687.2v-97h-0.5l0.5-27.1h-13.5c-69.7 0-115.4-10.7-135.8-31.6-13.6-14-13.2-30.3-12.7-43.4 0-2.1 0.1-4 0.1-5.8v-13.5h-27.1V358.4c39.8-4.7 65-16.2 81-28v46.3c-15.7 5.5-27.1 20.4-27.1 37.9 0 22.4 18.2 40.6 40.5 40.6 22.4 0 40.6-18.2 40.6-40.6 0-17.5-11.3-32.4-27.1-37.9v-97h-0.1l0.1-13.5h-13.5c-165.2 0-202.4-59.9-202.4-80.9v-27.1c0-22.4-18.1-40.5-40.5-40.5h-13.5v-13.5c0-22.4-18.1-40.5-40.5-40.5s-40.5 18.1-40.5 40.5v13.5h-13.5c-22.4 0-40.5 18.1-40.5 40.5v27.1c0 21-37.3 80.9-202.4 80.9H203v110.5c-15.7 5.5-27.1 20.4-27.1 37.9 0 22.4 18.2 40.6 40.6 40.6 22.2 0 40.5-18.2 40.5-40.6 0-17.5-11.3-32.4-27.1-37.9v-46.3c16 11.8 41.3 23.3 81 28v110.3h-27.1v13.5c0 1.8 0.1 3.8 0.1 5.8 0.5 13.2 0.9 29.5-12.7 43.4-20.4 21-66.1 31.6-135.8 31.6H122v124c-15.6 5.6-26.9 20.4-26.9 37.9 0 22.4 18.1 40.6 40.5 40.6s40.5-18.2 40.5-40.6c0-17.5-11.2-32.3-26.9-37.9v-59.7c14.1 10.3 35.5 20.4 67.5 25.9v166.3H203c-37.3 0-67.5 30.3-67.5 67.4v13.5h755.8v-13.5c0-37.1-30.3-67.4-67.5-67.4h-13.5V653.4c32-5.5 53.4-15.6 67.5-25.9v59.7c-15.7 5.6-26.9 20.4-26.9 37.9 0 22.4 18.1 40.6 40.5 40.6s40.5-18.2 40.5-40.6c-0.1-17.5-11.5-32.3-27.1-37.9z m-94.5-285.9c7.5 0 13.5 6 13.5 13.4 0 7.5-6.1 13.5-13.5 13.5-7.5 0-13.4-6.1-13.4-13.5s5.9-13.4 13.4-13.4z m-593.8 27c-7.5 0-13.5-6.1-13.5-13.5 0-7.5 6.1-13.4 13.5-13.4 7.5 0 13.4 6 13.4 13.4s-5.9 13.5-13.4 13.5z m-81 310.4c-7.5 0-13.5-6.1-13.5-13.5 0-7.5 6.1-13.4 13.5-13.4 7.5 0 13.5 6 13.5 13.4s-6.1 13.5-13.5 13.5z m660.1-445.6c-5.8 10.4-30.9 40.7-120.2 40.7-51.4 0-148.4-28.2-148.4-135h55.9c9.9 37.5 62.5 91.1 212.7 94.3z m-214.7 94.7v80.9h-27.1v-80.9h-80.9v80.9h-27.1v-80.9H365v80.9h-27.1V360.4c4.5 0.1 8.8 0.3 13.5 0.3 25.3 0 54.9-5.6 82.6-18.2 22.9 11.7 50.7 18.2 79.3 18.2s56.4-6.5 79.3-18.2c27.7 12.6 57.3 18.2 82.6 18.2 4.7 0 9.1-0.2 13.5-0.3v108.3h-27.1v-80.9h-80.7z m54 26.9v54h-27.1v-54h27.1zM419 684.7v135H297.5v-164c25.4-3.6 52.8-12.5 77-27.7 35.3 18.9 85.2 29.8 138.9 29.8S617 646.9 652.3 628c24.2 15.2 51.6 24.2 77 27.7v164H607.8v-135H419z m161.9 27v108h-54v-108h54z m-81 0v108h-54v-108h54z m13.5-81c-43.1 0-84.2-7.7-114.7-21 27.7-25.7 47.2-62.8 47.2-113.9h135c0 51.1 19.5 88.3 47.2 113.9-30.5 13.3-71.6 21-114.7 21z m-94.4-162h-27.1v-54H419v54z m80.9 0v-54H527v54h-27.1z m-36.4-143c20.9-14.7 38.5-34.6 49.9-60.3 11.3 25.7 29.1 45.6 49.9 60.3-15.4 5.2-32.3 8.1-49.9 8.1-17.5 0-34.5-3-49.9-8.1z m36.4-221.4c0-7.5 6.1-13.5 13.5-13.5 7.5 0 13.5 6.1 13.5 13.5v13.5h-27.1v-13.5z m-54 54c0-7.5 6.1-13.5 13.5-13.5h108c7.5 0 13.5 6.1 13.5 13.5v13.5h-135v-13.5zM231.1 293.1c150.3-3.2 202.9-56.9 212.9-94.3h55.9c0 106.8-97.1 135-148.4 135-89.9 0-114.7-30.7-120.4-40.7z m-80.9 297c70-1.6 116.1-14.7 140.5-39.8 18-18.5 20.4-39.3 20.5-54.6H419c0 106.7-97.1 134.9-148.4 134.9-90 0.1-114.8-30.5-120.4-40.5z m120.3 67.6v162h-27.1V656.6c8.5 0.7 17.4 1.1 27.1 1.1z m553.3 188.9c17.7 0 32.7 11.2 38.2 27.1H164.8c5.5-15.8 20.5-27.1 38.2-27.1h620.8z m-67.5-26.9v-162c9.7 0 18.6-0.5 27.1-1.1v163.1h-27.1z m0-189c-51.4 0-148.4-28.2-148.4-134.9h107.7c0.1 15.2 2.5 36.1 20.5 54.6 24.4 25.1 70.5 38.2 140.5 39.8-5.9 10.2-31 40.5-120.3 40.5z m135 108c-7.5 0-13.5-6.1-13.5-13.5 0-7.5 6.1-13.4 13.5-13.4 7.5 0 13.5 6 13.5 13.4s-6 13.5-13.5 13.5z" fill="#1E1B1E" p-id="1183"></path><path d="M526.9 104.3v13.5h-27.1v-13.5c0-7.5 6.1-13.5 13.5-13.5 7.6 0 13.6 6.1 13.6 13.5z" fill="#FFD3AE" p-id="1184"></path><path d="M783.3 656.6v163.1h-27.1v-162c9.8 0 18.7-0.4 27.1-1.1zM607.8 414.7h27.1v54h-27.1zM499.9 414.7H527v54h-27.1zM391.9 414.7H419v54h-27.1zM580.9 158.3v13.5h-135v-13.5c0-7.5 6.1-13.5 13.5-13.5h108c7.4 0 13.5 6.1 13.5 13.5zM563.3 325.7c-15.4 5.2-32.3 8.1-49.9 8.1-17.5 0-34.5-3-49.9-8.1 20.9-14.7 38.5-34.6 49.9-60.3 11.3 25.7 29.1 45.6 49.9 60.3zM862 873.7H164.8c5.5-15.8 20.5-27.1 38.2-27.1h620.8c17.7 0 32.7 11.3 38.2 27.1zM445.9 711.7h54v108h-54zM526.9 711.7h54v108h-54zM270.5 657.7v162h-27.1V656.6c8.5 0.7 17.4 1.1 27.1 1.1z" fill="#FFB895" p-id="1185"></path><path d="M729.3 655.7v164H607.8v-135H419v135H297.5v-164c25.4-3.6 52.8-12.5 77-27.7 35.3 18.9 85.2 29.8 138.9 29.8S617 646.9 652.3 628c24.2 15.2 51.6 24.1 77 27.7z" fill="#FFD3AE" p-id="1186"></path><path d="M419 495.8c0 106.7-97.1 134.9-148.4 134.9-89.9 0-114.7-30.6-120.4-40.6 70-1.6 116.1-14.7 140.5-39.8 18-18.5 20.4-39.3 20.5-54.6H419zM876.6 590.1c-6 10.3-31.1 40.6-120.4 40.6-51.4 0-148.4-28.2-148.4-134.9h107.7c0.1 15.2 2.5 36.1 20.5 54.6 24.5 25 70.6 38.1 140.6 39.7zM628.1 609.7c-30.5 13.3-71.6 21-114.7 21-43.1 0-84.2-7.7-114.7-21 27.7-25.7 47.2-62.8 47.2-113.9h135c0 51.1 19.5 88.2 47.2 113.9z" fill="#FFB895" p-id="1187"></path><path d="M688.9 360.4v108.3h-27.1v-80.9h-80.9v80.9h-27.1v-80.9h-80.9v80.9h-27.1v-80.9H365v80.9h-27.1V360.4c4.5 0.1 8.8 0.3 13.5 0.3 25.3 0 54.9-5.6 82.6-18.2 22.9 11.7 50.7 18.2 79.3 18.2s56.4-6.5 79.3-18.2c27.7 12.6 57.3 18.2 82.6 18.2 4.9 0 9.2-0.2 13.7-0.3z" fill="#FFD3AE" p-id="1188"></path><path d="M795.6 293.1c-5.8 10.4-30.9 40.7-120.2 40.7-51.4 0-148.4-28.2-148.4-135h55.9c9.9 37.5 62.5 91.1 212.7 94.3zM499.9 198.8c0 106.8-97.1 135-148.4 135-89.9 0-114.6-30.7-120.4-40.7 150.3-3.2 202.9-56.9 212.9-94.3h55.9z" fill="#FFB895" p-id="1189"></path><path d="M844.3 910.2H167.5c-1.5 0-2.7 1.2-2.7 2.7v55.9c0 1.5 1.2 2.7 2.7 2.7h676.8c1.5 0 2.7-1.2 2.7-2.7v-55.9c0-1.5-1.2-2.7-2.7-2.7z" fill="#AAD264" p-id="1190"></path><path d="M137.3 942.8h752.1c1 0 1.8-0.8 1.8-1.8v-38.5c0-1-0.8-1.8-1.8-1.8H137.3c-1 0-1.8 0.8-1.8 1.8V941c0 1 0.8 1.8 1.8 1.8z" fill="#6EA573" p-id="1191"></path></svg>